<svg width="24" height="25" viewBox="0 0 24 25" fill="none" xmlns="http://www.w3.org/2000/svg">
<path d="M2.29001 8.27998V18.01C2.29001 19.91 3.64001 20.69 5.28001 19.75L7.63001 18.41C8.14001 18.12 8.99001 18.09 9.52001 18.36L14.77 20.99C15.3 21.25 16.15 21.23 16.66 20.94L20.99 18.46C21.54 18.14 22 17.36 22 16.72V6.98998C22 5.08998 20.65 4.30998 19.01 5.24998L16.66 6.58998C16.15 6.87998 15.3 6.90998 14.77 6.63998L9.52001 4.01998C8.99001 3.75998 8.14001 3.77998 7.63001 4.06998L3.30001 6.54998C2.74001 6.86998 2.29001 7.64998 2.29001 8.27998Z" stroke="#173D33" stroke-width="1.5" stroke-linecap="round" stroke-linejoin="round"/>
<path d="M8.56 4.5V17.5" stroke="#173D33" stroke-width="1.5" stroke-linecap="round" stroke-linejoin="round"/>
<path d="M15.73 7.11914V20.4991" stroke="#173D33" stroke-width="1.5" stroke-linecap="round" stroke-linejoin="round"/>
</svg>
